<svg id="Group_159" data-name="Group 159" xmlns="http://www.w3.org/2000/svg" viewBox="0 0 145 192.573">
  <defs>
    <style>
      .cls-1 {
        fill: none;
      }

      .cls-1, .cls-2, .cls-3 {
        stroke: #193967;
        stroke-miterlimit: 10;
        stroke-width: 5px;
      }

      .cls-2 {
        fill: #ffbe5c;
      }

      .cls-3 {
        fill: #eaf1fe;
      }

      .cls-4 {
        fill: #00cf9f;
      }
    </style>
  </defs>
  <path id="Path_238" data-name="Path 238" class="cls-1" d="M2.5,154V22.4A19.888,19.888,0,0,1,22.4,2.5H142.5V137"/>
  <path id="Path_239" data-name="Path 239" class="cls-1" d="M21.5,134.5a19,19,0,0,0,0,38"/>
  <path id="Path_240" data-name="Path 240" class="cls-1" d="M142,134.5H21.5V3.5"/>
  <path id="Path_241" data-name="Path 241" class="cls-1" d="M21.5,172.5h121v-41"/>
  <path id="Path_242" data-name="Path 242" class="cls-2" d="M29.5,154.4V189l18-6.2,17,6.2V154"/>
  <rect id="Rectangle_156" data-name="Rectangle 156" class="cls-3" width="93" height="109" transform="translate(36.5 12.5)"/>
  <line id="Line_8" data-name="Line 8" class="cls-1" x1="119" transform="translate(21.5 153.5)"/>
  <g id="Group_158" data-name="Group 158">
    <path id="Path_243" data-name="Path 243" class="cls-4" d="M72.2,74.3s5.6,5.1,11.7,5.1c2.5,0,5.1-1,5.1-3.9,0-5.5-22.3-6-22.3-20.7,0-7.7,5.5-13.2,13.1-14.6V33.8h7.5V40c8.4,1,12.5,5.3,12.5,5.3l-5.1,9.8s-4.9-4.3-10.8-4.3c-2.5,0-5.2,1.1-5.2,3.8,0,5.8,22.3,5.4,22.3,20.6,0,7.3-4.9,13.6-13.7,14.9v6.2H79.8V90.1a25.115,25.115,0,0,1-14-6.7Z"/>
  </g>
</svg>
